<svg width="46" height="46" viewBox="0 0 46 46" fill="none" xmlns="http://www.w3.org/2000/svg">
<path d="M23 29C24.5913 29 26.1174 28.3679 27.2426 27.2426C28.3679 26.1174 29 24.5913 29 23C29 21.4087 28.3679 19.8826 27.2426 18.7574C26.1174 17.6321 24.5913 17 23 17C21.4087 17 19.8826 17.6321 18.7574 18.7574C17.6321 19.8826 17 21.4087 17 23C17 24.5913 17.6321 26.1174 18.7574 27.2426C19.8826 28.3679 21.4087 29 23 29V29Z" stroke="#160647" stroke-width="1.5" stroke-miterlimit="1.5" stroke-linecap="round" stroke-linejoin="round"/>
<path d="M23 17C23 17 19.024 13.05 19 9C19.002 5.014 18.9 0.998001 23 1C26.896 1.002 26.994 4.952 27 9C27.006 12.97 23 17 23 17ZM29 23C29 23 32.95 19.024 37 19C40.986 19.002 45.002 18.9 45 23C44.998 26.896 41.048 26.994 37 27C33.03 27.006 29 23 29 23ZM17 23C17 23 13.05 26.976 9 27C5.014 26.998 0.998001 27.1 1 23C1.002 19.104 4.952 19.006 9 19C12.97 18.994 17 23 17 23ZM23 29C23 29 26.976 32.95 27 37C26.998 40.986 27.1 45.002 23 45C19.104 44.998 19.006 41.048 19 37C18.994 33.03 23 29 23 29Z" stroke="#160647" stroke-width="1.5" stroke-miterlimit="1.5" stroke-linecap="round" stroke-linejoin="round"/>
</svg>
