<svg width="68" height="68" viewBox="0 0 68 68" fill="none" xmlns="http://www.w3.org/2000/svg">
<mask id="mask0_1_498" style="mask-type:luminance" maskUnits="userSpaceOnUse" x="0" y="0" width="68" height="68">
<path d="M67.8822 33.9412L33.9411 67.8823L-4.76837e-05 33.9412L33.9411 3.71933e-05L67.8822 33.9412Z" fill="white"/>
</mask>
<g mask="url(#mask0_1_498)">
<path d="M34.0853 9.46677L34.0853 27.4669M26.754 42.8026L21.3659 32.0263C21.2793 31.8538 21.2357 31.6629 21.2386 31.4699C21.2416 31.2768 21.291 31.0874 21.3828 30.9176L32.9893 9.49364C33.0939 9.30066 33.2494 9.14007 33.439 9.02935C33.6285 8.91862 33.8448 8.862 34.0642 8.86564C34.2837 8.86929 34.498 8.93306 34.6837 9.05002C34.8695 9.16698 35.0196 9.33265 35.1177 9.529L45.8403 30.977C45.9173 31.1309 45.9604 31.2996 45.9665 31.4716C45.9726 31.6437 45.9416 31.815 45.8756 31.974L41.394 42.7291C41.3031 42.9479 41.1494 43.135 40.9523 43.2666C40.7552 43.3982 40.5236 43.4685 40.2866 43.4687L27.8288 43.4673C27.6056 43.4674 27.3867 43.4053 27.1969 43.2879C27.007 43.1705 26.8536 43.0024 26.754 42.8026V42.8026Z" stroke="#160647" stroke-width="1.5" stroke-linecap="round" stroke-linejoin="round"/>
<path d="M27.085 43.4673L27.0864 51.4675C27.0865 52.5281 27.508 53.5453 28.258 54.2953C29.008 55.0453 30.0251 55.4667 31.0858 55.4669L37.0849 55.4697C37.6103 55.4698 38.1306 55.3664 38.616 55.1654C39.1015 54.9644 39.5426 54.6697 39.9141 54.2981C40.2856 53.9266 40.5803 53.4855 40.7814 53.0001C40.9824 52.5146 41.0858 51.9943 41.0857 51.4689L41.0843 43.4687M34.0867 33.4674C34.4807 33.4673 34.8709 33.3896 35.2348 33.2387C35.5988 33.0879 35.9295 32.8668 36.208 32.5881C36.4866 32.3095 36.7075 31.9787 36.8582 31.6146C37.0089 31.2506 37.0864 30.8604 37.0863 30.4664C37.0862 30.0724 37.0085 29.6823 36.8576 29.3183C36.7068 28.9544 36.4857 28.6237 36.207 28.3451C35.9284 28.0666 35.5976 27.8457 35.2335 27.695C34.8695 27.5443 34.4793 27.4668 34.0853 27.4669C33.2896 27.4671 32.5266 27.7833 31.964 28.3461C31.4015 28.9089 31.0856 29.6721 31.0858 30.4678C31.086 31.2635 31.4022 32.0266 31.965 32.5891C32.5278 33.1516 33.291 33.4676 34.0867 33.4674Z" stroke="#160647" stroke-width="1.5" stroke-linecap="round" stroke-linejoin="round"/>
</g>
</svg>
