<svg width="48" height="48" viewBox="0 0 48 48" fill="none" xmlns="http://www.w3.org/2000/svg">
<path d="M20 40C20 44 24 46 24 46C24 46 28 44 28 40M17 25C10 30 14 38 14 38L20 34M31.862 25C38.862 30 34.862 38 34.862 38L28.862 34M32.122 20.808L28 34H20L15.878 20.808C15.2985 18.9547 15.1774 16.9885 15.5251 15.0781C15.8727 13.1678 16.6788 11.3703 17.874 9.83999L23.054 3.20999C23.1662 3.0662 23.3098 2.94988 23.4737 2.86988C23.6376 2.78987 23.8176 2.74829 24 2.74829C24.1824 2.74829 24.3624 2.78987 24.5263 2.86988C24.6903 2.94988 24.8338 3.0662 24.946 3.20999L30.126 9.83999C31.3213 11.3703 32.1273 13.1678 32.475 15.0781C32.8227 16.9885 32.7015 18.9547 32.122 20.808V20.808Z" stroke="#160647" stroke-width="1.5" stroke-linecap="round" stroke-linejoin="round"/>
<path d="M24 22C22.9391 22 21.9217 21.5786 21.1716 20.8284C20.4214 20.0783 20 19.0609 20 18C20 16.9391 20.4214 15.9217 21.1716 15.1716C21.9217 14.4214 22.9391 14 24 14C25.0609 14 26.0783 14.4214 26.8284 15.1716C27.5786 15.9217 28 16.9391 28 18C28 19.0609 27.5786 20.0783 26.8284 20.8284C26.0783 21.5786 25.0609 22 24 22Z" stroke="#160647" stroke-width="1.5" stroke-linecap="round" stroke-linejoin="round"/>
</svg>
