<svg width="44" height="42" viewBox="0 0 44 42" fill="none" xmlns="http://www.w3.org/2000/svg">
<path d="M41 27V16M9 25V11C9 9.4087 9.63214 7.88258 10.7574 6.75736C11.8826 5.63214 13.4087 5 15 5H25M30.984 7H36.984M42.984 7H36.984M36.984 7V1M36.984 7V13M21 41H9C6.87827 41 4.84344 40.1571 3.34315 38.6569C1.84285 37.1566 1 35.1217 1 33C1 30.8783 1.84285 28.8434 3.34315 27.3431C4.84344 25.8429 6.87827 25 9 25H33C31.4177 25 29.871 25.4692 28.5554 26.3482C27.2398 27.2273 26.2145 28.4767 25.609 29.9385C25.0035 31.4003 24.845 33.0089 25.1537 34.5607C25.4624 36.1126 26.2243 37.538 27.3431 38.6569C28.462 39.7757 29.8874 40.5376 31.4393 40.8463C32.9911 41.155 34.5997 40.9965 36.0615 40.391C37.5233 39.7855 38.7727 38.7602 39.6518 37.4446C40.5308 36.129 41 34.5823 41 33V27" stroke="#160647" stroke-width="1.5" stroke-linecap="round" stroke-linejoin="round"/>
</svg>
